<svg xmlns="http://www.w3.org/2000/svg" viewBox="0 0 500 500"><g id="freepik--background-complete--inject-2"><rect y="382.4" width="500" height="0.25" style="fill:#ebebeb"></rect><path d="M237,337.8H43.91a5.71,5.71,0,0,1-5.7-5.71V60.66A5.71,5.71,0,0,1,43.91,55H237a5.71,5.71,0,0,1,5.71,5.71V332.09A5.71,5.71,0,0,1,237,337.8ZM43.91,55.2a5.46,5.46,0,0,0-5.45,5.46V332.09a5.46,5.46,0,0,0,5.45,5.46H237a5.47,5.47,0,0,0,5.46-5.46V60.66A5.47,5.47,0,0,0,237,55.2Z" style="fill:#ebebeb"></path><path d="M453.31,337.8H260.21a5.72,5.72,0,0,1-5.71-5.71V60.66A5.72,5.72,0,0,1,260.21,55h193.1A5.71,5.71,0,0,1,459,60.66V332.09A5.71,5.71,0,0,1,453.31,337.8ZM260.21,55.2a5.47,5.47,0,0,0-5.46,5.46V332.09a5.47,5.47,0,0,0,5.46,5.46h193.1a5.47,5.47,0,0,0,5.46-5.46V60.66a5.47,5.47,0,0,0-5.46-5.46Z" style="fill:#ebebeb"></path><rect x="174.44" y="391.92" width="26" height="0.25" style="fill:#ebebeb"></rect><rect x="52.46" y="389.21" width="54.1" height="0.25" style="fill:#ebebeb"></rect><rect x="147.12" y="401.21" width="26.32" height="0.25" style="fill:#ebebeb"></rect><rect x="258.23" y="399.53" width="38.83" height="0.25" style="fill:#ebebeb"></rect><rect x="305.96" y="399.53" width="10.69" height="0.25" style="fill:#ebebeb"></rect><rect x="395.35" y="395.31" width="54.56" height="0.25" style="fill:#ebebeb"></rect><rect x="76.92" y="91.25" width="148.38" height="156.58" style="fill:#e6e6e6"></rect><path d="M241.21,86.18H67.32a1.48,1.48,0,0,0-1.48,1.48h0a1.47,1.47,0,0,0,1.48,1.47H241.21a1.47,1.47,0,0,0,1.47-1.47h0A1.47,1.47,0,0,0,241.21,86.18Z" style="fill:#e6e6e6"></path><rect x="79.87" y="91.25" width="151.74" height="156.58" style="fill:#f0f0f0"></rect><rect x="76.92" y="247.83" width="148.38" height="5.85" style="fill:#e6e6e6"></rect><rect x="90.35" y="247.83" width="151.74" height="5.85" style="fill:#f0f0f0"></rect><rect x="86.26" y="102.49" width="138.95" height="134.11" transform="translate(325.28 13.81) rotate(90)" style="fill:#fafafa"></rect><polygon points="119.12 239.02 170.86 100.06 195.28 100.06 143.55 239.02 119.12 239.02" style="fill:#fff"></polygon><polygon points="148.79 239.02 200.53 100.06 210.05 100.06 158.31 239.02 148.79 239.02" style="fill:#fff"></polygon><rect x="152.75" y="168.98" width="138.95" height="1.12" transform="translate(391.77 -52.69) rotate(90)" style="fill:#e6e6e6"></rect><g style="opacity:0.6000000000000001"><polygon points="85.04 224.98 66.41 224.98 76.45 83.55 95.08 83.55 85.04 224.98" style="fill:#f0f0f0"></polygon><polygon points="92.3 224.98 77.78 224.98 87.82 83.55 102.34 83.55 92.3 224.98" style="fill:#e6e6e6"></polygon><polygon points="103.67 224.98 85.04 224.98 95.08 83.55 113.71 83.55 103.67 224.98" style="fill:#f0f0f0"></polygon><polygon points="110.93 224.98 96.41 224.98 106.46 83.55 120.97 83.55 110.93 224.98" style="fill:#e6e6e6"></polygon><polygon points="122.3 224.98 103.67 224.98 113.71 83.55 132.35 83.55 122.3 224.98" style="fill:#f0f0f0"></polygon></g><g style="opacity:0.6000000000000001"><polygon points="228.53 224.98 239.06 224.98 233.39 83.55 222.86 83.55 228.53 224.98" style="fill:#f0f0f0"></polygon><polygon points="224.43 224.98 232.63 224.98 226.96 83.55 218.75 83.55 224.43 224.98" style="fill:#e6e6e6"></polygon><polygon points="218 224.98 228.53 224.98 222.86 83.55 212.33 83.55 218 224.98" style="fill:#f0f0f0"></polygon><polygon points="213.9 224.98 222.1 224.98 216.43 83.55 208.22 83.55 213.9 224.98" style="fill:#e6e6e6"></polygon><polygon points="207.47 224.98 218 224.98 212.33 83.55 201.8 83.55 207.47 224.98" style="fill:#f0f0f0"></polygon></g><rect x="324.05" y="83.55" width="102.61" height="136.42" style="fill:#e6e6e6"></rect><rect x="327.25" y="83.55" width="107.2" height="136.42" style="fill:#f5f5f5"></rect><rect x="321.62" y="107.14" width="118.46" height="89.24" transform="translate(198.9 519.14) rotate(-85.38)" style="fill:#fff"></rect><rect x="365" y="154.17" width="118.46" height="2.2" transform="translate(235.28 565.6) rotate(-85.38)" style="fill:#e6e6e6"></rect><rect x="382.8" y="270.93" width="57.31" height="111.47" style="fill:#f5f5f5"></rect><rect x="435.38" y="270.93" width="4.73" height="111.47" style="fill:#f0f0f0"></rect><rect x="255.25" y="274.11" width="131.96" height="47.17" transform="translate(642.47 595.38) rotate(180)" style="fill:#e6e6e6"></rect><rect x="261.62" y="270.93" width="178.49" height="8.36" transform="translate(701.72 550.21) rotate(180)" style="fill:#f0f0f0"></rect><rect x="204.31" y="270.93" width="57.31" height="111.47" style="fill:#f5f5f5"></rect><path d="M206.38,306.44h.26a13.79,13.79,0,0,1,13.79,13.79V382.4a0,0,0,0,1,0,0H192.59a0,0,0,0,1,0,0V320.23A13.79,13.79,0,0,1,206.38,306.44Z" style="fill:#e6e6e6"></path><rect x="256.89" y="270.93" width="4.73" height="111.47" style="fill:#f0f0f0"></rect><polygon points="326.12 270.93 313.76 270.93 316.76 246.86 329.13 246.86 326.12 270.93" style="fill:#f0f0f0"></polygon><polygon points="328.86 270.93 316.49 270.93 319.5 246.86 331.86 246.86 328.86 270.93" style="fill:#f5f5f5"></polygon><polygon points="330.36 258.89 318 258.89 319.5 246.86 331.86 246.86 330.36 258.89" style="fill:#f0f0f0"></polygon><path d="M284.93,256h87.46a1.21,1.21,0,0,0,1.2-1.36l-6.74-53.92a1.21,1.21,0,0,0-1.2-1.06H278.19A1.22,1.22,0,0,0,277,201L283.72,255A1.22,1.22,0,0,0,284.93,256Z" style="fill:#f0f0f0"></path><path d="M286.23,256h87.46a1.21,1.21,0,0,0,1.2-1.36l-6.74-53.92a1.21,1.21,0,0,0-1.2-1.06H279.49a1.22,1.22,0,0,0-1.21,1.36L285,255A1.22,1.22,0,0,0,286.23,256Z" style="fill:#f5f5f5"></path><path d="M372.07,253l-6.31-50.47a.34.34,0,0,0-.34-.29h-84a.34.34,0,0,0-.34.38l6.31,50.47a.34.34,0,0,0,.34.29h84A.34.34,0,0,0,372.07,253Z" style="fill:#e6e6e6"></path><polygon points="363.11 253.42 340.91 202.27 321.44 202.27 343.64 253.42 363.11 253.42" style="fill:#ebebeb"></polygon><polygon points="339.89 253.42 317.69 202.27 310.68 202.27 332.88 253.42 339.89 253.42" style="fill:#ebebeb"></polygon><path d="M320,268.67h20.14a0,0,0,0,1,0,0v.25a2,2,0,0,1-2,2H322a2,2,0,0,1-2-2v-.25A0,0,0,0,1,320,268.67Z" transform="translate(660.08 539.6) rotate(-180)" style="fill:#f5f5f5"></path><path d="M308.64,268.67H322.3a0,0,0,0,1,0,0v.25a2,2,0,0,1-2,2h-9.65a2,2,0,0,1-2-2v-.25A0,0,0,0,1,308.64,268.67Z" transform="translate(630.94 539.6) rotate(180)" style="fill:#f0f0f0"></path><polygon points="362.36 270.93 300.1 270.93 298.42 265.93 354.26 265.93 362.36 270.93" style="fill:#f5f5f5"></polygon><polygon points="306.95 270.93 296.66 270.93 295.27 265.93 305.56 265.93 306.95 270.93" style="fill:#f0f0f0"></polygon><path d="M269.41,266.75h17.72a0,0,0,0,1,0,0v0a4.18,4.18,0,0,1-4.18,4.18h-9.36a4.18,4.18,0,0,1-4.18-4.18v0A0,0,0,0,1,269.41,266.75Z" transform="translate(556.55 537.67) rotate(-180)" style="fill:#f0f0f0"></path><rect x="89.23" y="301.67" width="17.37" height="80.73" transform="translate(195.82 684.07) rotate(180)" style="fill:#e0e0e0"></rect><polygon points="166.34 382.4 96.12 382.4 87.44 287 157.66 287 166.34 382.4" style="fill:#e6e6e6"></polygon><polygon points="169.98 382.4 99.76 382.4 91.07 287 161.3 287 169.98 382.4" style="fill:#f0f0f0"></polygon><polygon points="109.36 371.84 102.59 297.56 151.7 297.56 158.46 371.84 109.36 371.84" style="fill:#fff"></polygon></g><g id="freepik--upload-window--inject-2"><rect x="98.3" y="177" width="1" height="13.33" transform="translate(-5.95 3.33) rotate(-1.87)" style="fill:#407BFF"></rect><rect x="97.81" y="165.51" width="1" height="6.34" transform="translate(-5.46 3.3) rotate(-1.87)" style="fill:#407BFF"></rect><path d="M112.2,261.87H303.06a7.56,7.56,0,0,0,7.59-7.85L306.4,123.79a8.18,8.18,0,0,0-8.1-7.85H107.44a7.57,7.57,0,0,0-7.6,7.85L104.09,254A8.19,8.19,0,0,0,112.2,261.87Z" style="fill:#407BFF"></path><path d="M112.81,261.87H303.67a7.57,7.57,0,0,0,7.6-7.85L307,123.79a8.19,8.19,0,0,0-8.11-7.85H108.05a7.56,7.56,0,0,0-7.59,7.85L104.71,254A8.18,8.18,0,0,0,112.81,261.87Z" style="fill:#407BFF"></path><path d="M112.81,261.87H303.67a7.57,7.57,0,0,0,7.6-7.85L307,123.79a8.19,8.19,0,0,0-8.11-7.85H108.05a7.56,7.56,0,0,0-7.59,7.85L104.71,254A8.18,8.18,0,0,0,112.81,261.87Z" style="fill:#fff;opacity:0.5"></path><path d="M298.43,119.86H107.56l-.64,0c-4.89.4-4.19,7.82.74,7.82H298.85c4.92,0,5.14-7.42.22-7.82C298.86,119.87,298.64,119.86,298.43,119.86Z" style="fill:#407BFF;opacity:0.5"></path><path d="M112.38,123.79a1.73,1.73,0,0,1-1.74,1.79,1.87,1.87,0,0,1-1.86-1.79,1.73,1.73,0,0,1,1.74-1.8A1.86,1.86,0,0,1,112.38,123.79Z" style="fill:#fafafa"></path><path d="M118.5,123.79a1.72,1.72,0,0,1-1.74,1.79,1.88,1.88,0,0,1-1.86-1.79,1.73,1.73,0,0,1,1.74-1.8A1.86,1.86,0,0,1,118.5,123.79Z" style="fill:#fafafa"></path><ellipse cx="122.82" cy="123.79" rx="1.77" ry="1.83" transform="translate(-51.55 124.6) rotate(-45.49)" style="fill:#fafafa"></ellipse><path d="M116.51,248.87H299.13a2.73,2.73,0,0,0,2.75-2.84l-3.5-107.11a3,3,0,0,0-2.94-2.84H112.83a2.73,2.73,0,0,0-2.75,2.84L113.57,246A3,3,0,0,0,116.51,248.87Z" style="fill:#fff"></path><g style="opacity:0.30000000000000004"><polygon points="250.53 235.62 247.19 235.62 247.19 234.67 249.55 234.67 249.47 232.31 250.42 232.28 250.53 235.62" style="fill:#407BFF"></polygon><path d="M241.88,235.62h-5.31v-1h5.31Zm-10.62,0H226v-1h5.31Zm-10.62,0h-5.31v-1h5.31Zm-10.62,0h-5.31v-1H210Zm-10.61,0h-5.32v-1h5.32Zm-10.62,0h-5.31v-1h5.31Zm-10.62,0h-5.31v-1h5.31Z" style="fill:#407BFF"></path><polygon points="167.55 235.62 164.24 235.62 164.14 232.31 165.08 232.28 165.16 234.67 167.55 234.67 167.55 235.62" style="fill:#407BFF"></polygon><path d="M164,227l-.17-5.31,1,0,.17,5.31Zm-.34-10.62-.18-5.31.95,0,.17,5.31Zm-.35-10.62-.17-5.31.94,0,.18,5.31Zm-.35-10.61-.17-5.31.95,0,.17,5.31Zm-.34-10.62-.18-5.31.95,0,.17,5.31Zm-.35-10.63-.17-5.3.94,0,.18,5.31Zm-.35-10.61-.17-5.31.95,0,.17,5.31Z" style="fill:#407BFF"></path><polygon points="161.54 152.66 161.43 149.33 164.76 149.33 164.76 150.28 162.41 150.28 162.48 152.63 161.54 152.66" style="fill:#407BFF"></polygon><path d="M239.1,150.28h-5.31v-.95h5.31Zm-10.62,0h-5.31v-.95h5.31Zm-10.62,0h-5.31v-.95h5.31Zm-10.62,0h-5.31v-.95h5.31Zm-10.62,0h-5.31v-.95h5.31Zm-10.62,0h-5.31v-.95H186Zm-10.62,0h-5.31v-.95h5.31Z" style="fill:#407BFF"></path><polygon points="246.87 152.66 246.79 150.28 244.41 150.28 244.41 149.33 247.71 149.33 247.82 152.63 246.87 152.66" style="fill:#407BFF"></polygon><path d="M249.3,227l-.17-5.31.94,0,.18,5.31ZM249,216.38l-.17-5.31.95,0,.17,5.31Zm-.34-10.61-.18-5.31.95,0,.17,5.31Zm-.35-10.62-.17-5.31.94,0,.18,5.31Zm-.35-10.62-.17-5.31.95,0,.17,5.31Zm-.34-10.62-.18-5.31,1,0,.17,5.31Zm-.35-10.62-.17-5.31.94,0,.18,5.31Z" style="fill:#407BFF"></path></g><path d="M224.82,206H189.91a12.6,12.6,0,0,1-12.49-12.1,11.71,11.71,0,0,1,10.11-12.06,13.48,13.48,0,0,1,13.07-10.07,14.31,14.31,0,0,1,12.22,6.9,11.37,11.37,0,0,1,3.39-.51,12.19,12.19,0,0,1,12,10.83,9.33,9.33,0,0,1,5.3,8,8.66,8.66,0,0,1-8.69,9Zm-24.22-31.9a11.14,11.14,0,0,0-11,9l-.17.89-.9.06a9.39,9.39,0,0,0-8.81,9.74,10.24,10.24,0,0,0,10.16,9.84h34.91a6.31,6.31,0,0,0,6.36-6.57,7,7,0,0,0-4.49-6.21l-.72-.28,0-.77a9.84,9.84,0,0,0-9.73-9.34,9.14,9.14,0,0,0-3.48.68l-1,.4-.49-.94A12,12,0,0,0,200.6,174.12Z" style="fill:#407BFF"></path><polygon points="214.76 194.68 205.13 185.35 196.11 194.68 201.39 194.68 201.71 204.32 209.8 204.32 209.48 194.68 214.76 194.68" style="fill:#407BFF"></polygon></g></svg>
